<?xml version="1.0" standalone="no"?><!DOCTYPE svg PUBLIC "-//W3C//DTD SVG 1.1//EN" "http://www.w3.org/Graphics/SVG/1.1/DTD/svg11.dtd"><svg t="1495965886592" class="icon" style="" viewBox="0 0 1024 1024" version="1.1" xmlns="http://www.w3.org/2000/svg" p-id="1332" xmlns:xlink="http://www.w3.org/1999/xlink" width="200" height="200"><defs><style type="text/css"></style></defs><path d="M282 550.6c-22.5 2.1-64.5 12.2-87.3 32.5-68.9 60-27.6 169.8 111.6 169.8 81 0 161.9-51.8 225.4-134.7-90.4-44.1-167-75.8-249.7-67.6z" fill="#0699E1" p-id="1333"></path><path d="M816.4 64.2H207.8c-38.1 0-74.6 15.1-101.5 42-26.9 26.9-42.1 63.4-42.1 101.4v608.6c0 79.3 64.3 143.5 143.5 143.5h608.6c79.2-0.1 143.4-64.3 143.4-143.5V207.6c0-38-15.1-74.5-42-101.4-26.8-26.9-63.3-42-101.3-42z m143.2 746.3s-232.7-97.1-350.5-153.8c-78.8 97.1-180.7 156-286.2 156-178.7 0-239.4-156.5-154.8-259.5 18.5-22.2 49.8-43.7 98.6-55.7 76.1-18.8 197.3 11.6 310.9 49.1 21.2-39.1 38.1-80.4 50.5-123.2H278V388h180.5v-63.6H239.9v-35.6h218.6V198s0-15.2 15.5-15.2h88.3v106h216.2v35.5H562.3V388h176.4c-16 66.1-41.2 129.7-74.8 188.8 53.7 19.3 101.8 37.8 137.6 49.8C930.4 669.7 959.8 672 959.6 672v138.5z" fill="#0699E1" p-id="1334"></path></svg>