<?xml version="1.0" standalone="no"?><!DOCTYPE svg PUBLIC "-//W3C//DTD SVG 1.1//EN" "http://www.w3.org/Graphics/SVG/1.1/DTD/svg11.dtd"><svg t="1496109917784" class="icon" style="" viewBox="0 0 1024 1024" version="1.1" xmlns="http://www.w3.org/2000/svg" p-id="9139" xmlns:xlink="http://www.w3.org/1999/xlink" width="200" height="200"><defs><style type="text/css"></style></defs><path d="M957.517577 584.212654c-1.327571-13.691144-1.968779-27.427443-2.501614-41.172773-0.252871-6.58367-2.013935-10.187078-9.672305-10.756036-9.446528-0.695394-18.784682-3.142822-28.158961-4.949042-9.040128-1.733971-14.639409-8.787258-13.077029-16.192757 1.661722-7.857055 8.922724-12.26423 17.827386-10.719913 9.699399 1.679784 19.380735 3.431817 29.05304 5.165788 2.330023-9.130439-0.514773-15.235461-9.952269-21.421763-27.192634-17.7732-56.859789-30.507047-87.908702-39.077558-34.968409-9.663274-70.677368-16.662375-106.00702-25.034202-3.820154-0.912141-7.866086-2.619018-10.846348-5.093539-39.845201-33.225407-82.887411-61.456617-129.478842-84.350449-40.757342-20.040005-84.52204-26.470146-129.063412-29.323973-47.909971-3.070573-95.558041-0.153529-142.989364 7.062319-22.171344 3.37763-42.617748 11.722364-61.474679 23.318293-29.2156 17.953821-58.34992 36.178576-86.436632 55.866368-15.461239 10.837317-30.588327 15.443176-48.921454 10.494135-8.290547-2.248743-17.068774-2.79964-25.612192-4.127212-11.054063-1.743002-18.558905 2.339054-20.220627 11.017939-1.824282 9.401372 3.648563 16.183726 14.829061 18.43247 2.185526 0.433493 4.389113 0.794737 6.58367 1.183074l0.298027 1.499162c-8.80532 3.215071-17.538391 6.628825-26.434022 9.600056-19.714885 6.610763-22.108126 9.744554-22.487433 30.732824-0.045155 2.917044 0 5.825058 0 9.735523 12.652567 0 24.52846-0.036124 36.413385 0.009031 10.132891 0.054187 16.824934 5.256099 17.168116 13.185402 0.379306 8.245392-6.692043 14.494911-16.906214 14.630378-11.875893 0.153529-23.751786 0.027093-36.648193 0.027093v46.591431c0 7.775775-0.189653 15.560581 0.144497 23.318294 0.252871 5.418658-1.517224 8.715009-5.788933 12.607411-4.28074 3.937558-6.249519 10.674757-8.471169 16.490784-1.020514 2.591925 0.009031 5.906338-0.207716 8.8866-1.761064 24.004657 9.62715 29.161413 27.698376 30.922477 7.071349 0.686363 14.124636 1.625598 22.026846 2.537738-3.04348-45.733477 10.575415-84.260138 45.137425-113.999541 25.259979-21.755913 54.945196-31.762369 88.324131-30.669606 24.85358 0.812799 47.422292 8.669853 67.81451 22.586774 20.726368 14.160761 35.871519 33.017692 45.588979 56.254705 9.518777 22.785459 12.417759 46.428871 8.516325 71.363731h309.242834c-6.041804-50.221932 9.437497-92.126224 49.084014-123.581536 27.40938-21.773976 59.451714-29.739403 94.194345-25.892156 62.179105 6.890727 125.703844 68.085443 110.423227 155.524527 13.302806-2.167463 26.099871-4.0369 38.806625-6.493359 2.646112-0.514773 5.229005-2.908013 7.233909-5.030321 9.419434-9.916145 7.775775-40.41416-1.887499-49.987124-2.817702-2.736422-4.876793-7.270033-5.256099-11.171467z m-688.223802-153.799587c29.667155-42.63581 65.692202-72.474556 117.160426-81.451467l6.773323 91.909478-123.933749-10.458011z m185.09234 73.359603c-5.644436 0.352213-11.343058 0.063218-17.005557 0.063218v0.090311h-16.996525c-0.605084 0-1.192105-0.036124-1.788157-0.144498-8.137019-1.273385-14.223978-8.055739-13.591801-15.109025 0.614115-7.116505 6.701074-12.408728 14.964528-12.535163a805.23973 805.23973 0 0 1 34.002081-0.009032c8.705978 0.216746 14.56716 6.00568 14.801969 13.673082 0.198684 7.522904-5.716685 13.465366-14.386538 13.971107z m-30.976664-60.056797c-2.411303-33.026723-4.732295-65.132274-7.089411-97.355229 106.422451-11.966204 196.399273 23.507946 277.146314 92.379095-90.392253 20.482529-179.917521 9.690367-270.056903 4.976134z" fill="#B5853B" p-id="9140"></path><path d="M322.450814 627.21874c-0.045155-51.350819-41.570141-92.776463-92.975147-92.794525-51.224384-0.036124-93.399608 41.046337-94.925864 89.371739-1.743002 56.317923 44.396874 99.640097 94.194345 98.195121 52.904168 0 93.769883-41.344364 93.706666-94.772335zM886.01838 627.589015c0.063218-50.095497-41.470799-91.918508-89.877481-93.372516-54.936165-1.652691-97.960313 42.96093-97.671317 92.857743 0.307057 52.985448 40.910871 94.880708 92.695183 94.916833 54.078211 0.018062 94.772335-40.468347 94.853615-94.40206zM520.565996 114.776216c190.827086 0 350.514949 135.610957 387.921754 315.501384h65.195491c-16.219851-92.207504-60.065828-177.135943-127.65456-244.724675-86.924312-86.924312-202.513326-134.80719-325.462685-134.807189-122.95839 0-238.556436 47.882878-325.480747 134.807189-52.190711 52.199742-90.184538 114.767185-112.310727 182.997125h68.121567c57.356499-148.281587 201.375408-253.773835 369.669907-253.773834zM522.706366 908.311643c-130.869631 0-247.07276-63.795671-319.258321-161.909512h-77.026229a462.211561 462.211561 0 0 0 70.812834 91.141834c86.924312 86.924312 202.513326 134.816221 325.471716 134.816221 122.95839 0 238.556436-47.891909 325.480747-134.816221a458.716526 458.716526 0 0 0 73.729879-96.533399H845.703561c-71.833348 101.139259-189.770448 167.301078-322.997195 167.301077z" fill="#B5853B" p-id="9141"></path></svg>