<?xml version="1.0" standalone="no"?><!DOCTYPE svg PUBLIC "-//W3C//DTD SVG 1.1//EN" "http://www.w3.org/Graphics/SVG/1.1/DTD/svg11.dtd"><svg t="1496033585467" class="icon" style="" viewBox="0 0 1024 1024" version="1.1" xmlns="http://www.w3.org/2000/svg" p-id="13470" xmlns:xlink="http://www.w3.org/1999/xlink" width="200" height="200"><defs><style type="text/css"></style></defs><path d="M512 0c-280.868571 0-512 231.131429-512 512s231.131429 512 512 512 512-231.131429 512-512-231.131429-512-512-512z m-51.2 219.428571c0-8.777143 5.851429-14.628571 14.628571-14.628571h73.142858c8.777143 0 14.628571 5.851429 14.628571 14.628571v73.142858c0 8.777143-5.851429 14.628571-14.628571 14.628571h-73.142858c-8.777143 0-14.628571-5.851429-14.628571-14.628571v-73.142858z m153.6 585.142858c0 8.777143-7.314286 14.628571-14.628571 14.628571h-124.342858c-8.777143 0-14.628571-5.851429-14.628571-14.628571v-48.274286-229.668572c0-8.777143-5.851429-14.628571-14.628571-14.628571h-21.942858c-7.314286 0-14.628571-5.851429-14.628571-14.628571v-73.142858c0-8.777143 7.314286-14.628571 14.628571-14.628571h124.342858c8.777143 0 14.628571 5.851429 14.628571 14.628571v277.942858c0 8.777143 5.851429 14.628571 14.628571 14.628571h21.942858c7.314286 0 14.628571 5.851429 14.628571 14.628571v73.142858z" fill="#03A4FF" p-id="13471"></path></svg>