<?xml version="1.0" standalone="no"?><!DOCTYPE svg PUBLIC "-//W3C//DTD SVG 1.1//EN" "http://www.w3.org/Graphics/SVG/1.1/DTD/svg11.dtd"><svg t="1495966953541" class="icon" style="" viewBox="0 0 1024 1024" version="1.1" xmlns="http://www.w3.org/2000/svg" p-id="3980" xmlns:xlink="http://www.w3.org/1999/xlink" width="200" height="200"><defs><style type="text/css"></style></defs><path d="M756.825496 957.394023H267.172457c-110.312408 0-200.568015-90.255607-200.568015-200.568015V267.172969c0-110.312408 90.255607-200.568015 200.568015-200.568015h489.653039c110.312408 0 200.568015 90.255607 200.568015 200.568015v489.653039c0 110.312408-90.255607 200.568015-200.568015 200.568015z" fill="#57B74B" p-id="3981"></path><path d="M410.975631 622.815875l-73.673954-214.884069 102.837157 78.278831 328.682881-151.118789C712.237999 266.062682 618.315886 220.897016 511.999488 220.897016c-172.897815 0-313.060065 119.423927-313.060065 266.74011 0 90.237187 52.597939 169.998789 133.087111 218.268142l-25.7822 90.850148 108.839871-55.42738c30.518061 8.458649 63.084781 13.049201 96.91426 13.0492 172.898839 0 313.060065-119.423927 313.060065-266.74011 0-44.045145-12.538571-85.5924-34.725896-122.205273L410.975631 622.815875z" fill="#FFFFFF" p-id="3982"></path></svg>